<svg width="72" height="72" viewBox="0 0 72 72" fill="none" xmlns="http://www.w3.org/2000/svg">
<g id="Group 6">
<circle id="Ellipse 9" cx="36" cy="36" r="36" fill="url(#paint0_linear_10901_1431)"/>
<g id="&#240;&#159;&#166;&#134; icon &#34;safety certificate fill system&#34;">
<g id="Group">
<path id="Vector" d="M35.0983 19.6801L35.0983 19.6801C35.6045 19.4713 36.1531 19.4443 36.6692 19.5978L36.9129 19.6847L47.7906 24.1711L47.7906 24.1711C48.728 24.5577 49.4014 25.5192 49.4901 26.6581L49.5 26.9221V36.0876C49.5 41.5862 46.759 46.603 42.4225 49.191L42.0162 49.4239L36.8025 52.2909L36.8025 52.2909C36.3549 52.5371 35.8431 52.5652 35.3825 52.3789L35.1854 52.2842L29.98 49.4218C25.5469 46.9838 22.674 42.0585 22.5076 36.5895L22.5 36.0838V26.9127C22.5 25.7548 23.1074 24.7376 24.0027 24.2677L24.2195 24.1669L35.0983 19.6801ZM40.9702 29.8888L40.9701 29.8888L34.1875 37.3486L31.8076 34.7311L31.8076 34.731C31.0017 33.8448 29.6737 33.8448 28.8678 34.731L29.2378 35.0674L28.8678 34.731C28.0869 35.5899 28.0869 36.9645 28.8678 37.8233L32.6076 41.9365L32.9776 41.6002L32.6076 41.9365C33.4743 42.8897 34.9008 42.8897 35.7675 41.9365L35.3975 41.6002L35.7675 41.9365L43.9098 32.9811C43.9099 32.981 43.9099 32.981 43.9099 32.981C44.6909 32.1222 44.6909 30.7477 43.9099 29.8888C43.104 29.0024 41.7761 29.0025 40.9702 29.8888Z" fill="#D8D8D8" fill-opacity="0.3" stroke="white"/>
</g>
</g>
</g>
<defs>
<linearGradient id="paint0_linear_10901_1431" x1="7.488" y1="14.688" x2="63.648" y2="58.752" gradientUnits="userSpaceOnUse">
<stop stop-color="#615BD6"/>
<stop offset="1" stop-color="#528FEF"/>
</linearGradient>
</defs>
</svg>
