<svg width="72" height="72" viewBox="0 0 72 72" fill="none" xmlns="http://www.w3.org/2000/svg">
<rect width="72" height="72" rx="36" fill="url(#paint0_linear_10937_417)"/>
<path d="M37.688 51C37.3653 51 37.1013 50.8973 36.896 50.692C36.72 50.4867 36.632 50.2373 36.632 49.944V27.152L29.944 32.3C29.68 32.476 29.416 32.5493 29.152 32.52C28.888 32.4613 28.6533 32.3 28.448 32.036L26.6 29.66C26.424 29.396 26.3507 29.1173 26.38 28.824C26.4387 28.5307 26.6 28.296 26.864 28.12L36.72 20.508C36.896 20.3613 37.072 20.2733 37.248 20.244C37.424 20.2147 37.6147 20.2 37.82 20.2H41.692C41.9853 20.2 42.2347 20.3027 42.44 20.508C42.6453 20.7133 42.748 20.9627 42.748 21.256V49.944C42.748 50.2373 42.6453 50.4867 42.44 50.692C42.2347 50.8973 41.9853 51 41.692 51H37.688Z" fill="white"/>
<defs>
<linearGradient id="paint0_linear_10937_417" x1="7.488" y1="14.688" x2="63.648" y2="58.752" gradientUnits="userSpaceOnUse">
<stop stop-color="#615BD6"/>
<stop offset="1" stop-color="#528FEF"/>
</linearGradient>
</defs>
</svg>
