<svg width="72" height="72" viewBox="0 0 72 72" fill="none" xmlns="http://www.w3.org/2000/svg">
<g id="Group 6">
<circle id="Ellipse 9" cx="36" cy="36" r="36" fill="url(#paint0_linear_10901_1440)"/>
<g id="&#240;&#159;&#166;&#134; icon &#34;Misc Gadgetzan Lotus&#34;">
<path id="Vector" d="M55.0764 27.6203C55.2683 27.6839 55.3802 27.7417 55.4434 27.7822L55.4126 27.804C55.3611 27.8407 55.2874 27.8934 55.1982 27.9583C55.02 28.0879 54.7784 28.267 54.5261 28.4638C54.2748 28.6598 54.0075 28.8776 53.7802 29.0843C53.5679 29.2772 53.3411 29.5036 53.2198 29.7128C53.0561 29.9951 52.5823 30.8361 52.2162 31.9654C51.8515 33.0906 51.5822 34.5369 51.8632 36.0178C52.107 37.3027 52.0329 38.9357 51.6374 40.4755C51.2405 42.021 50.5376 43.405 49.5836 44.2467C47.2085 46.3422 44.2496 46.9183 41.9905 47.3047C40.4333 47.5711 39.6491 48.2112 39.0452 48.7408C39.0292 48.7548 39.0134 48.7687 38.9977 48.7825C38.5793 49.1497 38.3058 49.3898 37.9121 49.4702C37.9078 49.3164 37.9099 49.1307 37.9264 48.9246C37.9741 48.3291 38.1397 47.5965 38.5887 46.9627C38.8023 46.6612 39.2293 46.2819 39.8282 45.7907C39.9606 45.6821 40.1001 45.569 40.2445 45.4519C40.7289 45.0592 41.2705 44.6202 41.7991 44.1442C43.1616 42.9174 44.5672 41.3371 44.8538 39.3678C45.1165 37.5634 45.0881 36.6214 44.9234 35.9306C44.8479 35.614 44.7459 35.3615 44.6549 35.1364C44.6476 35.1183 44.6404 35.1004 44.6332 35.0827C44.537 34.8438 44.449 34.6152 44.3803 34.3025C44.3326 34.0857 44.3375 33.7791 44.403 33.4036C44.4674 33.0349 44.5845 32.6322 44.7326 32.2392C44.8805 31.8467 45.0555 31.4741 45.2307 31.1659C45.4106 30.8494 45.5735 30.6314 45.6884 30.5232C45.7085 30.5043 45.7305 30.4834 45.7546 30.4606C46.1364 30.0991 47.0159 29.2661 48.2479 28.5373C49.5589 27.7618 51.232 27.1269 53.0906 27.2858L53.1332 26.7877L53.0906 27.2858C54.0725 27.3698 54.6938 27.4936 55.0764 27.6203Z" fill="#D8D8D8" fill-opacity="0.3" stroke="white"/>
<path id="Vector_2" d="M44.3014 25.2578C44.2446 25.4984 44.1804 25.803 44.1252 26.1461C43.9951 26.9538 43.906 28.0252 44.1165 28.9835C44.1161 28.9842 44.1156 28.9849 44.1152 28.9857C44.0833 29.0416 44.0186 29.1254 43.9104 29.2344C43.6963 29.4504 43.3823 29.6959 43.0426 29.9344C42.707 30.17 42.3644 30.3863 42.1041 30.5444C42.0777 30.5605 42.0522 30.5759 42.0277 30.5907C42.0076 30.5664 41.9867 30.541 41.965 30.5144C41.7685 30.2738 41.5137 29.9468 41.2746 29.5962C41.0327 29.2413 40.8206 28.8819 40.6968 28.5737C40.6349 28.4198 40.6027 28.2971 40.593 28.2063C40.5846 28.1279 40.5954 28.0981 40.5963 28.0957C40.6838 27.9315 40.903 27.633 41.2325 27.2733C41.5558 26.9205 41.962 26.534 42.4011 26.193C42.843 25.8499 43.3009 25.5662 43.7282 25.4022C43.9402 25.3208 44.1312 25.2738 44.3014 25.2578ZM44.1298 28.9569C44.1306 28.954 44.1312 28.9525 44.1313 28.9525C44.1314 28.9525 44.131 28.9539 44.1298 28.9569Z" fill="#D8D8D8" fill-opacity="0.3" stroke="white"/>
<path id="Vector_3" d="M35.5712 24.9953C35.7653 24.4459 35.9389 23.9386 36.0831 23.5093C36.2457 23.9333 36.441 24.4344 36.6587 24.977C37.2895 26.5489 38.1163 28.4889 38.8834 29.908L38.8834 29.908C39.2266 30.5426 39.5986 31.1693 39.9601 31.778C40.0013 31.8475 40.0424 31.9167 40.0833 31.9857C40.4853 32.6636 40.8686 33.3181 41.1946 33.9585C41.8527 35.2513 42.2341 36.4076 42.0981 37.4734C41.9442 38.6803 41.7563 39.5917 41.3211 40.4558C40.8871 41.3174 40.1871 42.1706 38.9492 43.2129C38.5584 43.5419 38.2595 43.695 37.9788 43.8388C37.9407 43.8583 37.903 43.8776 37.8654 43.8972C37.5244 44.0748 37.1919 44.2775 36.915 44.766C36.8569 44.8686 36.8051 44.9608 36.7586 45.0438C36.6751 45.1925 36.6082 45.3118 36.5504 45.4087C36.4882 45.3135 36.4158 45.196 36.3253 45.0493C36.2755 44.9684 36.2201 44.8787 36.158 44.7789L36.1579 44.7787C35.8609 44.3019 35.5209 44.1123 35.1728 43.9477C35.1344 43.9296 35.0959 43.9117 35.057 43.8937C34.7705 43.7606 34.465 43.6188 34.0603 43.3046C32.7786 42.3097 32.0424 41.4834 31.5719 40.6383C31.1001 39.7909 30.8736 38.887 30.6686 37.6867L30.6686 37.6867C30.4873 36.6267 30.8191 35.4573 31.4214 34.1411C31.7198 33.489 32.0749 32.8206 32.4476 32.1282C32.4854 32.0579 32.5234 31.9874 32.5616 31.9167C32.8969 31.2946 33.2421 30.654 33.5581 30.0066C34.2643 28.5594 35.0078 26.5897 35.5712 24.9953Z" fill="#D8D8D8" fill-opacity="0.3" stroke="white"/>
<path id="Vector_4" d="M27.6201 34.3025L27.6201 34.3025C27.5514 34.6152 27.4635 34.8439 27.3673 35.0827C27.3601 35.1005 27.3529 35.1185 27.3455 35.1367C27.2546 35.3617 27.1526 35.6142 27.0771 35.9306C26.9123 36.6214 26.8839 37.5633 27.1466 39.3678C27.4332 41.3371 28.8387 42.9174 30.2011 44.1442C30.7299 44.6203 31.2716 45.0594 31.756 45.4522C31.9004 45.5692 32.0397 45.6821 32.1721 45.7907C32.771 46.2819 33.198 46.6612 33.4117 46.9628C33.8607 47.5966 34.0263 48.3292 34.074 48.9245C34.0905 49.1307 34.0926 49.3164 34.0883 49.4702C33.6945 49.3898 33.4209 49.1497 33.0024 48.7823C32.9868 48.7687 32.971 48.7548 32.955 48.7408C32.3511 48.2112 31.567 47.5711 30.0099 47.3047C27.7512 46.9182 24.7919 46.3422 22.4168 44.2467C21.4628 43.405 20.7599 42.021 20.3629 40.4755C19.9675 38.9357 19.8934 37.3027 20.1372 36.0178C20.4181 34.5369 20.1489 33.0906 19.7842 31.9654C19.4181 30.8361 18.9442 29.9951 18.7806 29.7128L18.7805 29.7126C18.6593 29.5036 18.4325 29.2773 18.2202 29.0844C17.9929 28.8778 17.7256 28.66 17.4743 28.4639C17.222 28.2671 16.9804 28.088 16.8022 27.9584C16.713 27.8935 16.6394 27.8407 16.5878 27.804L16.5571 27.7822C16.6202 27.7417 16.7321 27.6839 16.9242 27.6203C17.3067 27.4936 17.928 27.3698 18.9098 27.2858C20.7684 27.1268 22.4414 27.7618 23.7523 28.5374C24.9825 29.2652 25.8613 30.0968 26.2443 30.4592C26.269 30.4826 26.2916 30.504 26.3121 30.5233C26.427 30.6314 26.5899 30.8493 26.7699 31.1658C26.945 31.4739 27.12 31.8466 27.2679 32.239C27.416 32.632 27.5331 33.0348 27.5974 33.4035C27.6629 33.779 27.6678 34.0857 27.6201 34.3025Z" fill="#D8D8D8" fill-opacity="0.3" stroke="white"/>
<path id="Vector_5" d="M30.0816 31.2336C30.0816 31.2336 32.3141 28.7416 31.8466 27.8621C31.4239 27.0661 29.2149 24.7493 27.5676 24.7512L30.0816 31.2336ZM27.6993 25.2575C27.8694 25.2734 28.0605 25.3204 28.2726 25.4018C28.6998 25.5658 29.1578 25.8495 29.5996 26.1926C30.0387 26.5336 30.4449 26.9201 30.7682 27.273C31.0978 27.6328 31.3171 27.9315 31.4045 28.0957C31.4054 28.0981 31.4162 28.1278 31.4078 28.2062C31.3981 28.297 31.3659 28.4196 31.3041 28.5735C31.1802 28.8817 30.9682 29.2412 30.7263 29.596C30.4872 29.9467 30.2323 30.2736 30.0358 30.5142C30.0141 30.5408 29.9932 30.5662 29.9731 30.5905C29.9486 30.5757 29.923 30.5603 29.8966 30.5442C29.6364 30.386 29.2937 30.1697 28.9582 29.9341C28.6185 29.6956 28.3045 29.4501 28.0903 29.2341C27.9821 29.1251 27.9175 29.0413 27.8855 28.9854C27.8851 28.9847 27.8847 28.9839 27.8843 28.9832C28.0945 28.0251 28.0055 26.9538 27.8754 26.1461C27.8202 25.8028 27.756 25.4982 27.6993 25.2575ZM27.8694 28.9522C27.8695 28.9523 27.8701 28.9537 27.8709 28.9566C27.8697 28.9536 27.8693 28.9522 27.8694 28.9522Z" fill="#D8D8D8" fill-opacity="0.3" stroke="white"/>
</g>
</g>
<defs>
<linearGradient id="paint0_linear_10901_1440" x1="7.488" y1="14.688" x2="63.648" y2="58.752" gradientUnits="userSpaceOnUse">
<stop stop-color="#615BD6"/>
<stop offset="1" stop-color="#528FEF"/>
</linearGradient>
</defs>
</svg>
