<svg width="72" height="72" viewBox="0 0 72 72" fill="none" xmlns="http://www.w3.org/2000/svg">
<rect width="72" height="72" rx="36" fill="url(#paint0_linear_10937_426)"/>
<path d="M38.88 51C38.5867 51 38.3373 50.8973 38.132 50.692C37.9267 50.4867 37.824 50.2373 37.824 49.944V44.312H23.876C23.5533 44.312 23.2893 44.2093 23.084 44.004C22.908 43.7987 22.82 43.5493 22.82 43.256V40.264C22.82 40.088 22.8493 39.8827 22.908 39.648C22.996 39.384 23.128 39.1493 23.304 38.944L36.284 20.948C36.6653 20.4493 37.208 20.2 37.912 20.2H42.708C43.0013 20.2 43.2507 20.3027 43.456 20.508C43.6613 20.7133 43.764 20.9627 43.764 21.256V39.12H47.68C48.032 39.12 48.296 39.2227 48.472 39.428C48.6773 39.604 48.78 39.8533 48.78 40.176V43.256C48.78 43.5493 48.6773 43.7987 48.472 44.004C48.2667 44.2093 48.0173 44.312 47.724 44.312H43.764V49.944C43.764 50.2373 43.6613 50.4867 43.456 50.692C43.2507 50.8973 43.0013 51 42.708 51H38.88ZM28.936 39.296H37.956V26.58L28.936 39.296Z" fill="white"/>
<defs>
<linearGradient id="paint0_linear_10937_426" x1="7.488" y1="14.688" x2="63.648" y2="58.752" gradientUnits="userSpaceOnUse">
<stop stop-color="#615BD6"/>
<stop offset="1" stop-color="#528FEF"/>
</linearGradient>
</defs>
</svg>
