<svg width="20" height="20" viewBox="0 0 20 20" fill="none" xmlns="http://www.w3.org/2000/svg">
<g id="Icon House">
<path id="Vector" fill-rule="evenodd" clip-rule="evenodd" d="M10.0003 3.02431L17.9996 11.7245V17.8248C17.9996 18.4017 17.7889 18.9549 17.4139 19.3628C17.0389 19.7707 16.5302 19.9998 15.9998 19.9998H4.00081C3.47042 19.9998 2.96175 19.7707 2.58671 19.3628C2.21167 18.9549 2.00098 18.4017 2.00098 17.8248V11.7245L10.0003 3.02431ZM16.6664 1.87443V6.94955L14 4.04948V1.87443C14 1.68214 14.0702 1.49773 14.1952 1.36177C14.3202 1.2258 14.4898 1.14941 14.6666 1.14941H15.9998C16.1766 1.14941 16.3461 1.2258 16.4712 1.36177C16.5962 1.49773 16.6664 1.68214 16.6664 1.87443Z" fill="url(#paint0_linear_10901_1515)"/>
<path id="Vector_2" fill-rule="evenodd" clip-rule="evenodd" d="M9.05741 0.42455C9.30743 0.152711 9.64648 0 10 0C10.3535 0 10.6926 0.152711 10.9426 0.42455L19.8045 10.0615C19.9297 10.1976 20 10.3823 20 10.5748C20 10.7673 19.9297 10.952 19.8045 11.0881C19.6793 11.2242 19.5096 11.3007 19.3325 11.3007C19.1555 11.3007 18.9858 11.2242 18.8606 11.0881L10 1.44972L1.13941 11.0881C1.01424 11.2242 0.844472 11.3007 0.667453 11.3007C0.490433 11.3007 0.320664 11.2242 0.195492 11.0881C0.0703207 10.952 0 10.7673 0 10.5748C0 10.3823 0.0703207 10.1976 0.195492 10.0615L9.05741 0.42455Z" fill="url(#paint1_linear_10901_1515)"/>
</g>
<defs>
<linearGradient id="paint0_linear_10901_1515" x1="3.66484" y1="4.9949" x2="17.6323" y2="14.2961" gradientUnits="userSpaceOnUse">
<stop stop-color="#615BD6"/>
<stop offset="1" stop-color="#528FEF"/>
</linearGradient>
<linearGradient id="paint1_linear_10901_1515" x1="2.08" y1="2.30535" x2="10.6871" y2="14.2573" gradientUnits="userSpaceOnUse">
<stop stop-color="#615BD6"/>
<stop offset="1" stop-color="#528FEF"/>
</linearGradient>
</defs>
</svg>
