<svg width="32" height="30" viewBox="0 0 32 30" fill="none" xmlns="http://www.w3.org/2000/svg">
<g id="Group 2">
<ellipse id="Ellipse 4" cx="16" cy="15" rx="15" ry="16" transform="rotate(-90 16 15)" fill="url(#paint0_linear_10901_1536)"/>
<g id="icon instagram ">
<path id="Vector" fill-rule="evenodd" clip-rule="evenodd" d="M12.2895 6.61312C13.2495 6.57187 13.5555 6.5625 16 6.5625C18.445 6.5625 18.7505 6.57234 19.71 6.61312C20.6685 6.65391 21.323 6.79688 21.8955 7.00547C22.496 7.21741 23.0399 7.54949 23.4895 7.9786C23.9472 8.40003 24.3015 8.91001 24.5275 9.47297C24.75 10.0097 24.902 10.6233 24.946 11.5214C24.99 12.4214 25 12.7083 25 15C25 17.2917 24.9895 17.5786 24.946 18.4786C24.9025 19.3767 24.75 19.9903 24.5275 20.527C24.2975 21.0816 23.9895 21.5526 23.4895 22.0214C23.04 22.4505 22.496 22.7827 21.8955 22.9945C21.323 23.2031 20.6685 23.3456 19.7105 23.3869C18.7505 23.4281 18.4445 23.4375 16 23.4375C13.5555 23.4375 13.2495 23.4277 12.2895 23.3869C11.3315 23.3461 10.677 23.2031 10.1045 22.9945C9.513 22.7789 9.0105 22.4901 8.5105 22.0214C8.05271 21.6 7.69847 21.09 7.4725 20.527C7.25 19.9903 7.098 19.3767 7.054 18.4786C7.01 17.5786 7 17.2922 7 15C7 12.7078 7.0105 12.4214 7.054 11.5219C7.0975 10.6233 7.25 10.0097 7.4725 9.47297C7.69857 8.91005 8.05279 8.4001 8.5105 7.9786C8.96003 7.54941 9.504 7.21731 10.1045 7.00547C10.677 6.79688 11.3315 6.65438 12.2895 6.61312ZM19.637 8.13187C18.688 8.09156 18.403 8.08265 16 8.08265C13.597 8.08265 13.312 8.09156 12.363 8.13187C11.4855 8.16938 11.009 8.30672 10.692 8.4225C10.272 8.57531 9.972 8.75812 9.657 9.05343C9.3425 9.34875 9.147 9.63 8.984 10.0237C8.8605 10.3209 8.714 10.7677 8.674 11.5903C8.631 12.48 8.6215 12.7472 8.6215 15C8.6215 17.2528 8.631 17.52 8.674 18.4097C8.714 19.2323 8.8605 19.6791 8.984 19.9763C9.12818 20.3428 9.35816 20.6743 9.657 20.9466C9.94737 21.2267 10.301 21.4423 10.692 21.5775C11.009 21.6933 11.4855 21.8306 12.363 21.8681C13.312 21.9085 13.5965 21.9174 16 21.9174C18.4035 21.9174 18.688 21.9085 19.637 21.8681C20.5145 21.8306 20.991 21.6933 21.308 21.5775C21.728 21.4247 22.028 21.2419 22.343 20.9466C22.6418 20.6744 22.8718 20.3428 23.016 19.9763C23.1395 19.6791 23.286 19.2323 23.326 18.4097C23.369 17.52 23.3785 17.2528 23.3785 15C23.3785 12.7472 23.369 12.48 23.326 11.5903C23.286 10.7677 23.1395 10.3209 23.016 10.0237C22.853 9.63 22.658 9.34875 22.343 9.05343C22.028 8.7586 21.728 8.57531 21.308 8.4225C20.991 8.30672 20.5145 8.16938 19.637 8.13187ZM14.8509 17.601C15.2152 17.7425 15.6056 17.8153 16 17.8153C16.7965 17.8153 17.5603 17.5187 18.1234 16.9907C18.6867 16.4628 19.0031 15.7466 19.0031 15C19.0031 14.2534 18.6867 13.5372 18.1234 13.0093C17.5603 12.4813 16.7965 12.1847 16 12.1847C15.6056 12.1847 15.2152 12.2575 14.8509 12.399C14.4864 12.5405 14.1554 12.7478 13.8766 13.0093C13.5977 13.2707 13.3765 13.581 13.2256 13.9226C13.0747 14.2642 12.997 14.6303 12.997 15C12.997 15.3697 13.0747 15.7358 13.2256 16.0774C13.3765 16.419 13.5977 16.7293 13.8766 16.9907C14.1554 17.2521 14.4864 17.4595 14.8509 17.601ZM12.729 11.9334C13.5965 11.12 14.7731 10.6631 16 10.6631C17.2269 10.6631 18.4036 11.12 19.2711 11.9334C20.1386 12.7467 20.626 13.8498 20.626 15C20.626 16.1502 20.1386 17.2533 19.2711 18.0666C18.4036 18.8799 17.2269 19.3369 16 19.3369C14.7731 19.3369 13.5965 18.8799 12.729 18.0666C11.8614 17.2533 11.374 16.1502 11.374 15C11.374 13.8498 11.8614 12.7467 12.729 11.9334ZM21.6518 11.3093C21.8568 11.117 21.972 10.8563 21.972 10.5844C21.972 10.3125 21.8568 10.0517 21.6518 9.85948C21.4466 9.66722 21.1685 9.55922 20.8785 9.55922C20.5885 9.55922 20.3103 9.66722 20.1053 9.85948C19.9002 10.0517 19.785 10.3125 19.785 10.5844C19.785 10.8563 19.9002 11.117 20.1053 11.3093C20.3103 11.5015 20.5885 11.6095 20.8785 11.6095C21.1685 11.6095 21.4466 11.5015 21.6518 11.3093Z" fill="white"/>
</g>
</g>
<defs>
<linearGradient id="paint0_linear_10901_1536" x1="4.12" y1="5.528" x2="28.652" y2="23.5731" gradientUnits="userSpaceOnUse">
<stop stop-color="#615BD6"/>
<stop offset="1" stop-color="#528FEF"/>
</linearGradient>
</defs>
</svg>
