<svg width="72" height="72" viewBox="0 0 72 72" fill="none" xmlns="http://www.w3.org/2000/svg">
<g id="Group 6">
<circle id="Ellipse 9" cx="36" cy="36" r="36" fill="url(#paint0_linear_10901_1297)"/>
<g id="&#240;&#159;&#166;&#134; icon &#34;thumb up&#34;">
<path id="Vector" d="M30.4238 48.185L31.1998 48.1575C33.3638 48.0948 34.7758 51.2941 36.3997 51.2941H49.1995C50.7995 51.2941 51.1115 48.9848 51.0915 48.0281C51.0915 48.0281 53.0675 47.1617 52.1635 43.6722C52.5424 43.321 52.8402 42.8944 53.0368 42.421C53.2334 41.9476 53.3244 41.4384 53.3035 40.9277C53.3214 40.4344 53.2354 39.9427 53.051 39.4833C52.8666 39.024 52.5876 38.6067 52.2315 38.2577C52.9095 37.4626 53.288 36.4631 53.3035 35.4269C53.3035 33.741 51.7915 32.7804 50.1835 32.7804H45.4836C41.3877 32.7804 41.7316 30.6632 41.7316 30.6632C41.7316 30.6632 41.2677 25.1232 39.8277 22.5865C38.0197 19.3793 34.3998 20.4497 35.7437 24.59C36.7477 27.6403 32.1438 32.2354 30.4798 33.7841" fill="#D8D8D8" fill-opacity="0.3"/>
<path id="Vector_2" d="M28.8396 31.6396H20.3717C18.7717 31.6396 18.7197 32.8159 18.7197 34.2548V47.5461C18.7197 48.9889 18.7677 50.1573 20.3717 50.1573H28.8396C30.4395 50.1573 30.4915 48.9811 30.4915 47.5461V34.2548C30.4915 32.8119 30.4475 31.6396 28.8396 31.6396Z" fill="#D8D8D8" fill-opacity="0.3"/>
<path id="Vector_3" d="M24.6075 47.1929C25.4381 47.1929 26.1115 46.5329 26.1115 45.7187C26.1115 44.9045 25.4381 44.2445 24.6075 44.2445C23.7769 44.2445 23.1035 44.9045 23.1035 45.7187C23.1035 46.5329 23.7769 47.1929 24.6075 47.1929Z" fill="#D8D8D8" fill-opacity="0.3"/>
<g id="Group">
<path id="Vector_4" d="M49.1797 52H36.3999C35.3639 52 34.5239 51.1845 33.7079 50.3964C32.892 49.6083 32.108 48.8281 31.232 48.8634L30.464 48.8869L30.4 47.4794L31.168 47.4558C32.632 47.3853 33.7399 48.4635 34.6999 49.3927C35.3079 49.9808 35.9359 50.5689 36.3799 50.5689H49.1797C49.2774 50.5711 49.3744 50.5526 49.4641 50.5147C49.5538 50.4768 49.6342 50.4204 49.6997 50.3493C50.2037 49.8475 50.3637 48.6556 50.3477 48.0243V47.5539L50.7877 47.3617C50.8317 47.3382 52.1836 46.6364 51.4517 43.8331L51.3077 43.2881L51.7437 43.0607C52.2915 42.4712 52.5791 41.6931 52.5436 40.8965C52.5618 40.5066 52.5003 40.1172 52.363 39.751C52.2256 39.3847 52.0151 39.049 51.7437 38.7636L51.1717 38.2892L51.6797 37.7481C52.2326 37.0822 52.5424 36.2541 52.5596 35.3957C52.5596 34.0626 51.3157 33.4549 50.1597 33.4549H45.4838C43.6118 33.4549 42.2838 33.0315 41.5678 32.2003C41.1814 31.7681 40.9807 31.206 41.0078 30.632C40.9518 30.0399 40.4678 25.1429 39.1999 22.8964C38.4719 21.6339 37.4679 21.2301 36.8519 21.4967C36.2359 21.7633 35.8919 22.7395 36.4319 24.3784C37.5039 27.6405 33.4719 31.9964 30.976 34.3018L30 33.2589C32.912 30.5692 35.7759 26.9347 35.0719 24.7979C34.1999 22.1514 35.1839 20.6615 36.2719 20.1911C37.4719 19.6892 39.2599 20.1126 40.4518 22.222C41.9478 24.8607 42.4238 30.3536 42.4518 30.5849V30.6712V30.7535C42.4569 30.9664 42.5441 31.1695 42.6958 31.322C42.9478 31.5965 43.6518 32.0552 45.4958 32.0552H50.1597C52.3476 32.0552 53.9996 33.4941 53.9996 35.4074C53.9891 36.4015 53.6879 37.3717 53.1316 38.2029C53.7101 38.9913 54.0144 39.9412 53.9996 40.9121C54.0169 42.0007 53.6383 43.0598 52.9316 43.8997C53.5156 46.6442 52.4236 47.9146 51.7797 48.4125C51.7437 49.1104 51.5637 50.5179 50.7277 51.357C50.5277 51.5616 50.2874 51.7241 50.0212 51.8347C49.7551 51.9452 49.4687 52.0015 49.1797 52Z" fill="white"/>
<path id="Vector_5" d="M28.8398 50.8624H20.372C18 50.8624 18 48.8668 18 47.5455V34.2542C18 32.9329 18 30.9333 20.372 30.9333H28.8398C31.2118 30.9333 31.2118 32.9329 31.2118 34.2542V47.5455C31.1998 48.8668 31.1998 50.8624 28.8398 50.8624ZM20.372 32.3448C19.616 32.3448 19.44 32.5212 19.44 34.2542V47.5455C19.44 49.2745 19.616 49.451 20.372 49.451H28.8398C29.5958 49.451 29.7718 49.2745 29.7718 47.5455V34.2542C29.7718 32.5212 29.5958 32.3448 28.8398 32.3448H20.372Z" fill="white"/>
</g>
</g>
</g>
<defs>
<linearGradient id="paint0_linear_10901_1297" x1="7.488" y1="14.688" x2="63.648" y2="58.752" gradientUnits="userSpaceOnUse">
<stop stop-color="#615BD6"/>
<stop offset="1" stop-color="#528FEF"/>
</linearGradient>
</defs>
</svg>
