<svg width="72" height="72" viewBox="0 0 72 72" fill="none" xmlns="http://www.w3.org/2000/svg">
<rect width="72" height="72" rx="36" fill="url(#paint0_linear_10937_420)"/>
<path d="M25.036 51C24.7427 51 24.4933 50.8973 24.288 50.692C24.0827 50.4867 23.98 50.2373 23.98 49.944V47.7C23.98 47.436 24.0387 47.128 24.156 46.776C24.3027 46.3947 24.6107 46.0133 25.08 45.632L32.032 38.724C33.968 37.1987 35.5227 35.908 36.696 34.852C37.8987 33.7667 38.764 32.784 39.292 31.904C39.8493 30.9947 40.128 30.1 40.128 29.22C40.128 27.9 39.7613 26.8293 39.028 26.008C38.324 25.1867 37.1947 24.776 35.64 24.776C34.6133 24.776 33.748 24.996 33.044 25.436C32.34 25.8467 31.7827 26.404 31.372 27.108C30.9907 27.812 30.7267 28.5893 30.58 29.44C30.5213 29.8213 30.36 30.0853 30.096 30.232C29.832 30.3787 29.568 30.452 29.304 30.452H25.388C25.124 30.452 24.904 30.364 24.728 30.188C24.552 30.012 24.464 29.8067 24.464 29.572C24.4933 28.3107 24.7573 27.0933 25.256 25.92C25.7547 24.7173 26.4733 23.6613 27.412 22.752C28.38 21.8133 29.5533 21.0653 30.932 20.508C32.3107 19.9507 33.8653 19.672 35.596 19.672C38.0307 19.672 40.04 20.0827 41.624 20.904C43.2373 21.7253 44.44 22.84 45.232 24.248C46.0533 25.656 46.464 27.24 46.464 29C46.464 30.3787 46.2 31.6547 45.672 32.828C45.144 33.972 44.3813 35.0867 43.384 36.172C42.3867 37.228 41.184 38.3133 39.776 39.428L33.528 45.764H46.068C46.3907 45.764 46.64 45.8667 46.816 46.072C47.0213 46.248 47.124 46.4973 47.124 46.82V49.944C47.124 50.2373 47.0213 50.4867 46.816 50.692C46.64 50.8973 46.3907 51 46.068 51H25.036Z" fill="white"/>
<defs>
<linearGradient id="paint0_linear_10937_420" x1="7.488" y1="14.688" x2="63.648" y2="58.752" gradientUnits="userSpaceOnUse">
<stop stop-color="#615BD6"/>
<stop offset="1" stop-color="#528FEF"/>
</linearGradient>
</defs>
</svg>
