<svg width="72" height="72" viewBox="0 0 72 72" fill="none" xmlns="http://www.w3.org/2000/svg">
<rect width="72" height="72" rx="36" fill="url(#paint0_linear_10937_423)"/>
<path d="M35.684 51.44C33.6307 51.44 31.856 51.1907 30.36 50.692C28.864 50.1933 27.6173 49.548 26.62 48.756C25.652 47.9347 24.9187 47.0547 24.42 46.116C23.9213 45.148 23.6573 44.1947 23.628 43.256C23.628 42.992 23.716 42.7867 23.892 42.64C24.0973 42.464 24.332 42.376 24.596 42.376H28.556C28.8493 42.376 29.0987 42.4347 29.304 42.552C29.5093 42.6693 29.6853 42.904 29.832 43.256C30.096 44.048 30.5213 44.6787 31.108 45.148C31.724 45.6173 32.428 45.9547 33.22 46.16C34.012 46.336 34.848 46.424 35.728 46.424C37.488 46.424 38.8813 46.0133 39.908 45.192C40.964 44.3413 41.492 43.1387 41.492 41.584C41.492 40.0293 41.008 38.9147 40.04 38.24C39.072 37.536 37.7227 37.184 35.992 37.184H31.46C31.1373 37.184 30.8733 37.096 30.668 36.92C30.4627 36.7147 30.36 36.4507 30.36 36.128V34.28C30.36 33.9867 30.4187 33.7373 30.536 33.532C30.6827 33.2973 30.8293 33.1067 30.976 32.96L38.852 25.26H26.268C25.9453 25.26 25.6813 25.1573 25.476 24.952C25.3 24.7467 25.212 24.4973 25.212 24.204V21.3C25.212 20.9773 25.3 20.7133 25.476 20.508C25.6813 20.3027 25.9453 20.2 26.268 20.2H45.144C45.4667 20.2 45.7307 20.3027 45.936 20.508C46.1413 20.7133 46.244 20.9773 46.244 21.3V23.94C46.244 24.204 46.1853 24.4387 46.068 24.644C45.9507 24.8493 45.8187 25.0253 45.672 25.172L38.06 33.004L38.588 33.048C40.3773 33.1947 41.9613 33.6053 43.34 34.28C44.748 34.9253 45.8333 35.8787 46.596 37.14C47.388 38.4013 47.784 39.9853 47.784 41.892C47.784 43.8867 47.256 45.6027 46.2 47.04C45.1733 48.448 43.7507 49.5333 41.932 50.296C40.1133 51.0587 38.0307 51.44 35.684 51.44Z" fill="white"/>
<defs>
<linearGradient id="paint0_linear_10937_423" x1="7.488" y1="14.688" x2="63.648" y2="58.752" gradientUnits="userSpaceOnUse">
<stop stop-color="#615BD6"/>
<stop offset="1" stop-color="#528FEF"/>
</linearGradient>
</defs>
</svg>
