<svg width="72" height="72" viewBox="0 0 72 72" fill="none" xmlns="http://www.w3.org/2000/svg">
<g id="Group 19">
<circle id="Ellipse 9" cx="36" cy="36" r="36" fill="url(#paint0_linear_10901_1421)"/>
<g id="Vector">
<path d="M31.0003 19.3333H41.0003H31.0003ZM36.0003 32.6666V39.3333V32.6666ZM36.0003 52.6666C39.5365 52.6666 42.9279 51.2618 45.4284 48.7613C47.9289 46.2609 49.3337 42.8695 49.3337 39.3333C49.3337 35.797 47.9289 32.4056 45.4284 29.9052C42.9279 27.4047 39.5365 25.9999 36.0003 25.9999C32.4641 25.9999 29.0727 27.4047 26.5722 29.9052C24.0718 32.4056 22.667 35.797 22.667 39.3333C22.667 42.8695 24.0718 46.2609 26.5722 48.7613C29.0727 51.2618 32.4641 52.6666 36.0003 52.6666Z" fill="#D8D8D8" fill-opacity="0.3"/>
<path d="M31.0003 19.3333H41.0003M36.0003 32.6666V39.3333M36.0003 52.6666C39.5365 52.6666 42.9279 51.2618 45.4284 48.7613C47.9289 46.2609 49.3337 42.8695 49.3337 39.3333C49.3337 35.797 47.9289 32.4056 45.4284 29.9052C42.9279 27.4047 39.5365 25.9999 36.0003 25.9999C32.4641 25.9999 29.0727 27.4047 26.5722 29.9052C24.0718 32.4056 22.667 35.797 22.667 39.3333C22.667 42.8695 24.0718 46.2609 26.5722 48.7613C29.0727 51.2618 32.4641 52.6666 36.0003 52.6666Z" stroke="white" stroke-linecap="round" stroke-linejoin="round"/>
</g>
</g>
<defs>
<linearGradient id="paint0_linear_10901_1421" x1="7.488" y1="14.688" x2="63.648" y2="58.752" gradientUnits="userSpaceOnUse">
<stop stop-color="#615BD6"/>
<stop offset="1" stop-color="#528FEF"/>
</linearGradient>
</defs>
</svg>
