<svg width="32" height="30" viewBox="0 0 32 30" fill="none" xmlns="http://www.w3.org/2000/svg">
<g id="Group 3">
<ellipse id="Ellipse 3" cx="16" cy="15" rx="15" ry="16" transform="rotate(-90 16 15)" fill="url(#paint0_linear_10901_1532)"/>
<g id="icon VK">
<path id="Vector" fill-rule="evenodd" clip-rule="evenodd" d="M25.5411 10.1368C25.6801 9.69767 25.5411 9.375 24.8794 9.375H22.6914C22.1351 9.375 21.8786 9.65373 21.7395 9.96109C21.7395 9.96109 20.6268 12.5299 19.0505 14.1984C18.5406 14.6815 18.3088 14.8352 18.0306 14.8352C17.8915 14.8352 17.6828 14.6815 17.6828 14.2424V10.1368C17.6828 9.60984 17.5288 9.375 17.0651 9.375H13.6268C13.2791 9.375 13.07 9.61956 13.07 9.85134C13.07 10.3509 13.8581 10.4661 13.9394 11.8712V14.923C13.9394 15.5921 13.8118 15.7134 13.5336 15.7134C12.7919 15.7134 10.9876 13.1332 9.91745 10.1807C9.70773 9.60681 9.49739 9.375 8.93819 9.375H6.75018C6.12504 9.375 6 9.65373 6 9.96109C6 10.51 6.74178 13.2325 9.45387 16.8331C11.2619 19.292 13.8093 20.625 16.1273 20.625C17.5182 20.625 17.6903 20.329 17.6903 19.819V17.9605C17.6903 17.3684 17.822 17.2502 18.2624 17.2502C18.5869 17.2502 19.1433 17.404 20.4413 18.5896C21.9249 19.9947 22.1695 20.625 23.0039 20.625H25.192C25.8171 20.625 26.1297 20.329 25.9494 19.7447C25.752 19.1624 25.0438 18.3176 24.1039 17.3161C23.5939 16.7453 22.8289 16.1305 22.5971 15.8231C22.2726 15.428 22.3654 15.2523 22.5971 14.9011C22.5971 14.9011 25.2629 11.3443 25.5411 10.1368Z" fill="white"/>
</g>
</g>
<defs>
<linearGradient id="paint0_linear_10901_1532" x1="4.12" y1="5.528" x2="28.652" y2="23.5731" gradientUnits="userSpaceOnUse">
<stop stop-color="#615BD6"/>
<stop offset="1" stop-color="#528FEF"/>
</linearGradient>
</defs>
</svg>
