<svg width="72" height="72" viewBox="0 0 72 72" fill="none" xmlns="http://www.w3.org/2000/svg">
<g id="Group 6">
<circle id="Ellipse 9" cx="36" cy="36" r="36" fill="url(#paint0_linear_10901_1413)"/>
<g id="&#240;&#159;&#166;&#134; icon &#34;water sharp&#34;">
<path id="Vector" d="M36.9444 50.9795V51.4801L37.445 51.4795C39.5992 51.477 41.6572 50.5604 43.1695 48.9431C44.6808 47.3268 45.5255 45.1421 45.5278 42.8699L45.5283 42.3694H45.0278H42.8611H42.3617L42.3611 42.8689C42.3596 44.2827 41.8334 45.632 40.9075 46.6221C39.9827 47.6112 38.7363 48.1607 37.4438 48.1623L36.9444 48.1629V48.6623V50.9795ZM36 16.7835C36.0519 16.847 36.1086 16.9167 36.17 16.9925C36.5227 17.4281 37.0273 18.0633 37.6333 18.8598C38.8457 20.4532 40.4616 22.6891 42.0766 25.2595C43.6925 27.8312 45.3021 30.7294 46.5066 33.6482C47.7131 36.5721 48.5 39.4858 48.5 42.097C48.5 46.2655 47.274 49.6091 45.1261 51.9062C42.9817 54.1995 39.8719 55.5 36 55.5C32.1281 55.5 29.0183 54.1995 26.8739 51.9062C24.726 49.6091 23.5 46.2655 23.5 42.097C23.5 39.4858 24.2869 36.5721 25.4934 33.6482C26.6979 30.7294 28.3075 27.8312 29.9234 25.2595C31.5384 22.6891 33.1543 20.4532 34.3667 18.8598C34.9727 18.0633 35.4773 17.4281 35.83 16.9925C35.8914 16.9167 35.9481 16.847 36 16.7835Z" fill="#D8D8D8" fill-opacity="0.3" stroke="white"/>
</g>
</g>
<defs>
<linearGradient id="paint0_linear_10901_1413" x1="7.488" y1="14.688" x2="63.648" y2="58.752" gradientUnits="userSpaceOnUse">
<stop stop-color="#615BD6"/>
<stop offset="1" stop-color="#528FEF"/>
</linearGradient>
</defs>
</svg>
